<mxfile host="app.diagrams.net" agent="Mozilla/5.0 (Windows NT 10.0; Win64; x64) AppleWebKit/537.36 (KHTML, like Gecko) Chrome/136.0.0.0 Safari/537.36" version="26.2.13">
  <diagram name="Page-1" id="0nF_kIsVZiJPyhtbK4A9">
    <mxGraphModel dx="696" dy="378" grid="0" gridSize="10" guides="1" tooltips="1" connect="1" arrows="1" fold="1" page="1" pageScale="1" pageWidth="850" pageHeight="1100" math="0" shadow="0">
      <root>
        <mxCell id="0" />
        <mxCell id="1" parent="0" />
        <mxCell id="0N_k6MlsDDixOQEcG2Z5-1" value="" style="rounded=0;whiteSpace=wrap;html=1;fillColor=none;rotation=0;" vertex="1" parent="1">
          <mxGeometry x="1132.57" y="417" width="214" height="299" as="geometry" />
        </mxCell>
        <mxCell id="0N_k6MlsDDixOQEcG2Z5-2" value="Machine 2" style="text;html=1;strokeColor=none;fillColor=none;align=center;verticalAlign=middle;whiteSpace=wrap;rounded=0;rotation=0;" vertex="1" parent="1">
          <mxGeometry x="1132.5700000000002" y="417" width="65.43" height="18" as="geometry" />
        </mxCell>
        <mxCell id="0N_k6MlsDDixOQEcG2Z5-3" value="print to console" style="rounded=1;whiteSpace=wrap;html=1;rotation=0;" vertex="1" parent="1">
          <mxGeometry x="1187.9466821720612" y="437.38245234503387" width="83" height="37" as="geometry" />
        </mxCell>
        <mxCell id="0N_k6MlsDDixOQEcG2Z5-5" style="edgeStyle=orthogonalEdgeStyle;rounded=0;orthogonalLoop=1;jettySize=auto;html=1;exitX=0.5;exitY=0;exitDx=0;exitDy=0;entryX=0.5;entryY=1;entryDx=0;entryDy=0;strokeWidth=2;" edge="1" parent="1" source="0N_k6MlsDDixOQEcG2Z5-6" target="0N_k6MlsDDixOQEcG2Z5-3">
          <mxGeometry relative="1" as="geometry">
            <mxPoint x="1229.441682172061" y="549.0024523450339" as="targetPoint" />
          </mxGeometry>
        </mxCell>
        <mxCell id="0N_k6MlsDDixOQEcG2Z5-6" value="Server" style="rounded=1;whiteSpace=wrap;html=1;rotation=0;" vertex="1" parent="1">
          <mxGeometry x="1164.566682172061" y="578.0024523450339" width="131" height="47" as="geometry" />
        </mxCell>
        <mxCell id="0N_k6MlsDDixOQEcG2Z5-7" value="&lt;font style=&quot;font-size: 8px;&quot;&gt;&quot;hello from client&quot;&lt;/font&gt;" style="rounded=0;whiteSpace=wrap;html=1;rotation=0;" vertex="1" parent="1">
          <mxGeometry x="1238" y="522" width="68" height="19" as="geometry" />
        </mxCell>
        <mxCell id="0N_k6MlsDDixOQEcG2Z5-8" value="" style="rounded=0;whiteSpace=wrap;html=1;fillColor=none;rotation=0;" vertex="1" parent="1">
          <mxGeometry x="836" y="416.5" width="197" height="301.5" as="geometry" />
        </mxCell>
        <mxCell id="0N_k6MlsDDixOQEcG2Z5-9" value="Machine 1" style="text;html=1;strokeColor=none;fillColor=none;align=center;verticalAlign=middle;whiteSpace=wrap;rounded=0;rotation=0;" vertex="1" parent="1">
          <mxGeometry x="836" y="417" width="65.43" height="18" as="geometry" />
        </mxCell>
        <mxCell id="0N_k6MlsDDixOQEcG2Z5-10" value="print to console" style="rounded=1;whiteSpace=wrap;html=1;rotation=0;" vertex="1" parent="1">
          <mxGeometry x="887.3766821720612" y="436.88245234503387" width="83" height="37" as="geometry" />
        </mxCell>
        <mxCell id="0N_k6MlsDDixOQEcG2Z5-12" style="edgeStyle=orthogonalEdgeStyle;rounded=0;orthogonalLoop=1;jettySize=auto;html=1;exitX=0.5;exitY=0;exitDx=0;exitDy=0;entryX=0.5;entryY=1;entryDx=0;entryDy=0;strokeWidth=2;" edge="1" parent="1" source="0N_k6MlsDDixOQEcG2Z5-13" target="0N_k6MlsDDixOQEcG2Z5-10">
          <mxGeometry relative="1" as="geometry">
            <mxPoint x="928.8716821720609" y="548.5024523450339" as="targetPoint" />
          </mxGeometry>
        </mxCell>
        <mxCell id="0N_k6MlsDDixOQEcG2Z5-13" value="Server" style="rounded=1;whiteSpace=wrap;html=1;rotation=0;" vertex="1" parent="1">
          <mxGeometry x="863.9966821720611" y="578.0024523450339" width="131" height="47" as="geometry" />
        </mxCell>
        <mxCell id="0N_k6MlsDDixOQEcG2Z5-14" value="&lt;font style=&quot;font-size: 8px;&quot;&gt;&quot;hello from client&quot;&lt;/font&gt;" style="rounded=0;whiteSpace=wrap;html=1;rotation=0;" vertex="1" parent="1">
          <mxGeometry x="936" y="522" width="70" height="19" as="geometry" />
        </mxCell>
        <mxCell id="0N_k6MlsDDixOQEcG2Z5-17" style="edgeStyle=orthogonalEdgeStyle;rounded=0;orthogonalLoop=1;jettySize=auto;html=1;entryX=0;entryY=0.5;entryDx=0;entryDy=0;curved=1;fillColor=#d5e8d4;strokeColor=#82b366;strokeWidth=2;" edge="1" parent="1" source="0N_k6MlsDDixOQEcG2Z5-18" target="0N_k6MlsDDixOQEcG2Z5-6">
          <mxGeometry relative="1" as="geometry" />
        </mxCell>
        <mxCell id="0N_k6MlsDDixOQEcG2Z5-18" value="Client&lt;br style=&quot;border-color: var(--border-color);&quot;&gt;" style="rounded=1;whiteSpace=wrap;html=1;" vertex="1" parent="1">
          <mxGeometry x="866" y="656" width="131" height="47" as="geometry" />
        </mxCell>
        <mxCell id="0N_k6MlsDDixOQEcG2Z5-19" style="edgeStyle=orthogonalEdgeStyle;rounded=0;orthogonalLoop=1;jettySize=auto;html=1;entryX=1;entryY=0.5;entryDx=0;entryDy=0;curved=1;fillColor=#f8cecc;strokeColor=#b85450;strokeWidth=2;" edge="1" parent="1" source="0N_k6MlsDDixOQEcG2Z5-20" target="0N_k6MlsDDixOQEcG2Z5-13">
          <mxGeometry relative="1" as="geometry" />
        </mxCell>
        <mxCell id="0N_k6MlsDDixOQEcG2Z5-20" value="Client&lt;br style=&quot;border-color: var(--border-color);&quot;&gt;" style="rounded=1;whiteSpace=wrap;html=1;" vertex="1" parent="1">
          <mxGeometry x="1172.07" y="656" width="131" height="47" as="geometry" />
        </mxCell>
        <mxCell id="0N_k6MlsDDixOQEcG2Z5-21" value="" style="group;rotation=30;" vertex="1" connectable="0" parent="1">
          <mxGeometry x="1021.001409277359" y="613.0021427294184" width="112.29903309786039" height="54.918076450958154" as="geometry" />
        </mxCell>
        <mxCell id="0N_k6MlsDDixOQEcG2Z5-22" value="&lt;font style=&quot;font-size: 8px;&quot;&gt;&quot;/py tick&quot;&lt;/font&gt;" style="rounded=0;whiteSpace=wrap;html=1;rotation=15;" vertex="1" parent="0N_k6MlsDDixOQEcG2Z5-21">
          <mxGeometry x="11" y="20" width="85" height="16.48" as="geometry" />
        </mxCell>
        <mxCell id="0N_k6MlsDDixOQEcG2Z5-23" value="&lt;font style=&quot;font-size: 8px;&quot;&gt;&quot;/py tick&quot;&lt;/font&gt;" style="rounded=0;whiteSpace=wrap;html=1;rotation=15;" vertex="1" parent="0N_k6MlsDDixOQEcG2Z5-21">
          <mxGeometry x="20" y="19" width="86" height="16.48" as="geometry" />
        </mxCell>
        <mxCell id="0N_k6MlsDDixOQEcG2Z5-24" value="&lt;font style=&quot;font-size: 8px;&quot;&gt;&quot;/tick hello from client!&quot;&lt;/font&gt;" style="rounded=0;whiteSpace=wrap;html=1;rotation=15;" vertex="1" parent="0N_k6MlsDDixOQEcG2Z5-21">
          <mxGeometry x="27" y="18" width="87" height="16.48" as="geometry" />
        </mxCell>
      </root>
    </mxGraphModel>
  </diagram>
</mxfile>
